<svg width="1140" height="32" viewBox="0 0 1140 32" fill="none" xmlns="http://www.w3.org/2000/svg">
<path d="M498.8 0H473.2C471.433 0 470 1.43269 470 3.2V28.8C470 30.5673 471.433 32 473.2 32H486V19.9529H481.2V15.4353H486V13.0093C486 8.41638 488.383 6.4 492.28 6.4C494.109 6.4 495.094 6.53027 495.572 6.59356L495.6 6.59727V10.9176H492.942C491.289 10.9176 490.8 11.773 490.8 13.5048V15.4353H495.559L494.901 19.9529H490.8V32H498.8C500.567 32 502 30.5673 502 28.8V3.2C502 1.43269 500.567 0 498.8 0Z" fill="#706458" fill-opacity="0.9"/>
<path fill-rule="evenodd" clip-rule="evenodd" d="M554.8 0H529.2C527.433 0 526 1.43269 526 3.2V28.8C526 30.5673 527.433 32 529.2 32H554.8C556.567 32 558 30.5673 558 28.8V3.2C558 1.43269 556.567 0 554.8 0ZM550.56 9.98298C551.49 9.87553 552.376 9.63729 553.2 9.28328C552.584 10.1737 551.804 10.9559 550.906 11.5831C550.914 11.7739 550.919 11.9655 550.919 12.1579C550.919 18.0296 546.298 24.8 537.845 24.8C535.249 24.8 532.834 24.0645 530.8 22.8042C531.16 22.8458 531.526 22.8667 531.897 22.8667C534.05 22.8667 536.032 22.1561 537.604 20.9641C535.593 20.9283 533.896 19.643 533.311 17.878C533.591 17.9288 533.88 17.9571 534.175 17.9571C534.595 17.9571 535.002 17.9029 535.387 17.8013C533.284 17.394 531.7 15.5981 531.7 13.4448V13.389C532.32 13.7214 533.029 13.9213 533.782 13.9446C532.549 13.1483 531.738 11.788 531.738 10.247C531.738 9.43155 531.965 8.66854 532.359 8.01215C534.627 10.701 538.013 12.4703 541.832 12.6552C541.754 12.3311 541.713 11.9913 541.713 11.6431C541.713 9.18999 543.77 7.2 546.308 7.2C547.63 7.2 548.824 7.73977 549.662 8.60357C550.709 8.40365 551.693 8.03381 552.581 7.52486C552.238 8.56275 551.51 9.43322 550.56 9.98298Z" fill="#706458" fill-opacity="0.9"/>
<path fill-rule="evenodd" clip-rule="evenodd" d="M610.8 0H585.2C583.433 0 582 1.43269 582 3.2V28.8C582 30.5673 583.433 32 585.2 32H610.8C612.567 32 614 30.5673 614 28.8V3.2C614 1.43269 612.567 0 610.8 0ZM588.4 7.30246C588.4 8.68399 589.521 9.80638 590.906 9.80638C592.288 9.80638 593.411 8.68399 593.411 7.30246C593.411 5.9224 592.288 4.8 590.906 4.8C589.522 4.8 588.4 5.92094 588.4 7.30246ZM588.801 25.6H593.099V11.7819H588.801V25.6ZM609.2 25.6H604.904V18.8802C604.904 17.2774 604.875 15.216 602.671 15.216C600.434 15.216 600.09 16.9615 600.09 18.7637V25.6H595.795V11.7819H599.918V13.67H599.977C600.551 12.584 601.952 11.4383 604.043 11.4383C608.396 11.4383 609.2 14.3003 609.2 18.0213V25.6Z" fill="#706458" fill-opacity="0.9"/>
<path fill-rule="evenodd" clip-rule="evenodd" d="M647.6 0H660.4C665.702 0 670 4.29807 670 9.6V22.4C670 27.7019 665.702 32 660.4 32H647.6C642.298 32 638 27.7019 638 22.4V9.6C638 4.29807 642.298 0 647.6 0ZM663.6 4.8C664.4 4.8 665.2 5.6 665.2 6.4C665.2 7.2 664.4 8 663.6 8C662.8 8 662 7.2 662 6.4C662 5.6 662.8 4.8 663.6 4.8ZM662 16C662 11.588 658.412 8 654 8C649.588 8 646 11.588 646 16C646 20.412 649.588 24 654 24C658.412 24 662 20.412 662 16ZM654 11.2C651.349 11.2 649.2 13.349 649.2 16C649.2 18.651 651.349 20.8 654 20.8C656.651 20.8 658.8 18.651 658.8 16C658.8 13.349 656.651 11.2 654 11.2Z" fill="#706458" fill-opacity="0.9"/>
</svg>
